<svg width="137" height="112" viewBox="0 0 137 112" fill="none" xmlns="http://www.w3.org/2000/svg">
<path d="M23.42 78.564L16.476 34.948H13.756V33.7H24.252V34.948H21.628L26.268 66.564H25.948L30.3 34.948H27.708V33.7H34.62V34.948H31.676L25.34 78.564H23.42ZM36.795 78.5V77.252H39.835V34.948H36.795V33.7H47.707V34.948H44.603V77.252H47.707V78.5H36.795ZM51.193 78.5V77.252H54.201V34.948H51.193V33.7H61.721C62.8303 33.7 63.9183 33.892 64.985 34.276C66.0517 34.6387 67.001 35.2253 67.833 36.036C68.6863 36.8253 69.3583 37.86 69.849 39.14C70.361 40.42 70.617 41.9667 70.617 43.78C70.617 45.572 70.4037 47.1293 69.977 48.452C69.5503 49.7747 68.985 50.884 68.281 51.78C67.5983 52.6547 66.8517 53.3373 66.041 53.828C65.2303 54.3187 64.4517 54.628 63.705 54.756C64.4943 54.7773 65.337 55.0013 66.233 55.428C67.1503 55.8547 68.025 56.516 68.857 57.412C69.689 58.308 70.361 59.4707 70.873 60.9C71.4063 62.308 71.673 64.0147 71.673 66.02C71.673 68.7507 71.2783 71.044 70.489 72.9C69.6997 74.756 68.6437 76.1533 67.321 77.092C65.9983 78.0307 64.5263 78.5 62.905 78.5H51.193ZM58.937 77.252H61.881C62.6917 77.252 63.449 76.8573 64.153 76.068C64.8783 75.2787 65.4757 74.0627 65.945 72.42C66.4143 70.7773 66.649 68.676 66.649 66.116C66.649 63.5347 66.3717 61.4653 65.817 59.908C65.2837 58.3293 64.6117 57.188 63.801 56.484C62.9903 55.78 62.1583 55.428 61.305 55.428H58.937V77.252ZM58.937 54.18H61.305C62.1583 54.18 62.9157 53.8387 63.577 53.156C64.2383 52.452 64.761 51.3427 65.145 49.828C65.5503 48.292 65.753 46.276 65.753 43.78C65.753 41.4547 65.529 39.6627 65.081 38.404C64.633 37.124 64.057 36.228 63.353 35.716C62.6703 35.204 61.9663 34.948 61.241 34.948H58.937V54.18ZM73.693 78.5V77.252H76.637V34.948H73.693V33.7H91.293V42.948H90.045C90.045 41.22 89.8957 39.7587 89.597 38.564C89.2983 37.3693 88.797 36.4733 88.093 35.876C87.389 35.2573 86.4077 34.948 85.149 34.948H81.469V55.46H88.093V51.908H89.309V60.164H88.093V56.708H81.469V77.252H85.053C86.3117 77.252 87.3037 76.9427 88.029 76.324C88.7543 75.684 89.2663 74.7667 89.565 73.572C89.885 72.356 90.045 70.884 90.045 69.156H91.293V78.5H73.693Z" fill="black"/>
</svg>
